<mxfile host="app.diagrams.net" agent="Mozilla/5.0 (Windows NT 10.0; Win64; x64) AppleWebKit/537.36 (KHTML, like Gecko) Chrome/139.0.0.0 Safari/537.36" version="28.0.9">
  <diagram name="Page-1" id="fLIMxp5pACuHTNp74boH">
    <mxGraphModel dx="872" dy="1531" grid="1" gridSize="10" guides="1" tooltips="1" connect="1" arrows="1" fold="1" page="1" pageScale="1" pageWidth="850" pageHeight="1100" math="0" shadow="0">
      <root>
        <mxCell id="0" />
        <mxCell id="1" parent="0" />
        <mxCell id="vLVanVNAV3CpISKJ5yDy-3" style="edgeStyle=orthogonalEdgeStyle;rounded=0;orthogonalLoop=1;jettySize=auto;html=1;entryX=0;entryY=0.5;entryDx=0;entryDy=0;" edge="1" parent="1" source="vLVanVNAV3CpISKJ5yDy-1" target="vLVanVNAV3CpISKJ5yDy-2">
          <mxGeometry relative="1" as="geometry" />
        </mxCell>
        <mxCell id="vLVanVNAV3CpISKJ5yDy-10" style="edgeStyle=orthogonalEdgeStyle;rounded=0;orthogonalLoop=1;jettySize=auto;html=1;entryX=0;entryY=0.5;entryDx=0;entryDy=0;" edge="1" parent="1" source="vLVanVNAV3CpISKJ5yDy-1" target="vLVanVNAV3CpISKJ5yDy-9">
          <mxGeometry relative="1" as="geometry" />
        </mxCell>
        <mxCell id="vLVanVNAV3CpISKJ5yDy-1" value="&lt;b&gt;9ca3&lt;/b&gt;" style="ellipse;whiteSpace=wrap;html=1;fillColor=#dae8fc;strokeColor=#6c8ebf;" vertex="1" parent="1">
          <mxGeometry x="70" y="40" width="90" height="40" as="geometry" />
        </mxCell>
        <mxCell id="vLVanVNAV3CpISKJ5yDy-5" style="edgeStyle=orthogonalEdgeStyle;rounded=0;orthogonalLoop=1;jettySize=auto;html=1;entryX=0;entryY=0.5;entryDx=0;entryDy=0;" edge="1" parent="1" source="vLVanVNAV3CpISKJ5yDy-2" target="vLVanVNAV3CpISKJ5yDy-4">
          <mxGeometry relative="1" as="geometry" />
        </mxCell>
        <mxCell id="vLVanVNAV3CpISKJ5yDy-2" value="&lt;b&gt;9ca3&lt;/b&gt;" style="ellipse;whiteSpace=wrap;html=1;fillColor=#f8cecc;strokeColor=#b85450;" vertex="1" parent="1">
          <mxGeometry x="140" y="110" width="90" height="40" as="geometry" />
        </mxCell>
        <mxCell id="vLVanVNAV3CpISKJ5yDy-8" style="edgeStyle=orthogonalEdgeStyle;rounded=0;orthogonalLoop=1;jettySize=auto;html=1;entryX=0;entryY=0.5;entryDx=0;entryDy=0;" edge="1" parent="1" source="vLVanVNAV3CpISKJ5yDy-4" target="vLVanVNAV3CpISKJ5yDy-7">
          <mxGeometry relative="1" as="geometry" />
        </mxCell>
        <mxCell id="vLVanVNAV3CpISKJ5yDy-4" value="&lt;b&gt;82c1&lt;/b&gt;" style="ellipse;whiteSpace=wrap;html=1;fillColor=#f8cecc;strokeColor=#b85450;" vertex="1" parent="1">
          <mxGeometry x="270" y="110" width="90" height="40" as="geometry" />
        </mxCell>
        <mxCell id="vLVanVNAV3CpISKJ5yDy-6" value="&lt;b&gt;plain-dosa&lt;/b&gt;" style="text;html=1;align=center;verticalAlign=middle;resizable=0;points=[];autosize=1;strokeColor=none;fillColor=none;" vertex="1" parent="1">
          <mxGeometry x="110" y="148" width="80" height="30" as="geometry" />
        </mxCell>
        <mxCell id="vLVanVNAV3CpISKJ5yDy-11" style="edgeStyle=orthogonalEdgeStyle;rounded=0;orthogonalLoop=1;jettySize=auto;html=1;entryX=0.5;entryY=1;entryDx=0;entryDy=0;" edge="1" parent="1" source="vLVanVNAV3CpISKJ5yDy-7" target="vLVanVNAV3CpISKJ5yDy-9">
          <mxGeometry relative="1" as="geometry" />
        </mxCell>
        <mxCell id="vLVanVNAV3CpISKJ5yDy-7" value="&lt;b&gt;b3d81&lt;/b&gt;" style="ellipse;whiteSpace=wrap;html=1;fillColor=#f8cecc;strokeColor=#b85450;" vertex="1" parent="1">
          <mxGeometry x="400" y="110" width="90" height="40" as="geometry" />
        </mxCell>
        <mxCell id="vLVanVNAV3CpISKJ5yDy-15" style="edgeStyle=orthogonalEdgeStyle;rounded=0;orthogonalLoop=1;jettySize=auto;html=1;entryX=0;entryY=0.5;entryDx=0;entryDy=0;" edge="1" parent="1" source="vLVanVNAV3CpISKJ5yDy-9" target="vLVanVNAV3CpISKJ5yDy-13">
          <mxGeometry relative="1" as="geometry" />
        </mxCell>
        <mxCell id="vLVanVNAV3CpISKJ5yDy-23" style="edgeStyle=orthogonalEdgeStyle;rounded=0;orthogonalLoop=1;jettySize=auto;html=1;entryX=0;entryY=0.5;entryDx=0;entryDy=0;" edge="1" parent="1" source="vLVanVNAV3CpISKJ5yDy-9" target="vLVanVNAV3CpISKJ5yDy-22">
          <mxGeometry relative="1" as="geometry" />
        </mxCell>
        <mxCell id="vLVanVNAV3CpISKJ5yDy-9" value="&lt;b&gt;12a8&lt;/b&gt;" style="ellipse;whiteSpace=wrap;html=1;fillColor=#dae8fc;strokeColor=#6c8ebf;" vertex="1" parent="1">
          <mxGeometry x="400" y="40" width="90" height="40" as="geometry" />
        </mxCell>
        <mxCell id="vLVanVNAV3CpISKJ5yDy-12" value="&lt;b&gt;Merge Commit&lt;/b&gt;" style="text;html=1;align=center;verticalAlign=middle;resizable=0;points=[];autosize=1;strokeColor=none;fillColor=none;" vertex="1" parent="1">
          <mxGeometry x="390" y="10" width="110" height="30" as="geometry" />
        </mxCell>
        <mxCell id="vLVanVNAV3CpISKJ5yDy-16" style="edgeStyle=orthogonalEdgeStyle;rounded=0;orthogonalLoop=1;jettySize=auto;html=1;entryX=0;entryY=0.5;entryDx=0;entryDy=0;" edge="1" parent="1" source="vLVanVNAV3CpISKJ5yDy-13" target="vLVanVNAV3CpISKJ5yDy-14">
          <mxGeometry relative="1" as="geometry" />
        </mxCell>
        <mxCell id="vLVanVNAV3CpISKJ5yDy-13" value="&lt;b&gt;12a8&lt;/b&gt;" style="ellipse;whiteSpace=wrap;html=1;fillColor=#d5e8d4;strokeColor=#82b366;" vertex="1" parent="1">
          <mxGeometry x="530" y="110" width="90" height="40" as="geometry" />
        </mxCell>
        <mxCell id="vLVanVNAV3CpISKJ5yDy-19" style="edgeStyle=orthogonalEdgeStyle;rounded=0;orthogonalLoop=1;jettySize=auto;html=1;" edge="1" parent="1" source="vLVanVNAV3CpISKJ5yDy-14" target="vLVanVNAV3CpISKJ5yDy-18">
          <mxGeometry relative="1" as="geometry" />
        </mxCell>
        <mxCell id="vLVanVNAV3CpISKJ5yDy-28" style="edgeStyle=orthogonalEdgeStyle;rounded=0;orthogonalLoop=1;jettySize=auto;html=1;entryX=0.5;entryY=1;entryDx=0;entryDy=0;dashed=1;dashPattern=8 8;" edge="1" parent="1" source="vLVanVNAV3CpISKJ5yDy-14" target="vLVanVNAV3CpISKJ5yDy-22">
          <mxGeometry relative="1" as="geometry" />
        </mxCell>
        <mxCell id="vLVanVNAV3CpISKJ5yDy-14" value="&lt;b&gt;3127&lt;/b&gt;" style="ellipse;whiteSpace=wrap;html=1;fillColor=#d5e8d4;strokeColor=#82b366;" vertex="1" parent="1">
          <mxGeometry x="650" y="110" width="90" height="40" as="geometry" />
        </mxCell>
        <mxCell id="vLVanVNAV3CpISKJ5yDy-17" value="&lt;b&gt;Karam Dosa&lt;/b&gt;" style="text;html=1;align=center;verticalAlign=middle;resizable=0;points=[];autosize=1;strokeColor=none;fillColor=none;" vertex="1" parent="1">
          <mxGeometry x="525" y="148" width="90" height="30" as="geometry" />
        </mxCell>
        <mxCell id="vLVanVNAV3CpISKJ5yDy-21" style="edgeStyle=orthogonalEdgeStyle;rounded=0;orthogonalLoop=1;jettySize=auto;html=1;entryX=0;entryY=0.5;entryDx=0;entryDy=0;" edge="1" parent="1" source="vLVanVNAV3CpISKJ5yDy-18" target="vLVanVNAV3CpISKJ5yDy-20">
          <mxGeometry relative="1" as="geometry" />
        </mxCell>
        <mxCell id="vLVanVNAV3CpISKJ5yDy-29" style="edgeStyle=orthogonalEdgeStyle;rounded=0;orthogonalLoop=1;jettySize=auto;html=1;entryX=0.5;entryY=1;entryDx=0;entryDy=0;dashed=1;" edge="1" parent="1" source="vLVanVNAV3CpISKJ5yDy-18" target="vLVanVNAV3CpISKJ5yDy-24">
          <mxGeometry relative="1" as="geometry" />
        </mxCell>
        <mxCell id="vLVanVNAV3CpISKJ5yDy-18" value="&lt;b&gt;57ec&lt;/b&gt;" style="ellipse;whiteSpace=wrap;html=1;fillColor=#d5e8d4;strokeColor=#82b366;" vertex="1" parent="1">
          <mxGeometry x="770" y="110" width="90" height="40" as="geometry" />
        </mxCell>
        <mxCell id="vLVanVNAV3CpISKJ5yDy-30" style="edgeStyle=orthogonalEdgeStyle;rounded=0;orthogonalLoop=1;jettySize=auto;html=1;entryX=0.5;entryY=1;entryDx=0;entryDy=0;dashed=1;dashPattern=8 8;" edge="1" parent="1" source="vLVanVNAV3CpISKJ5yDy-20" target="vLVanVNAV3CpISKJ5yDy-25">
          <mxGeometry relative="1" as="geometry" />
        </mxCell>
        <mxCell id="vLVanVNAV3CpISKJ5yDy-20" value="&lt;b&gt;8e12&lt;/b&gt;" style="ellipse;whiteSpace=wrap;html=1;fillColor=#d5e8d4;strokeColor=#82b366;" vertex="1" parent="1">
          <mxGeometry x="890" y="110" width="90" height="40" as="geometry" />
        </mxCell>
        <mxCell id="vLVanVNAV3CpISKJ5yDy-26" style="edgeStyle=orthogonalEdgeStyle;rounded=0;orthogonalLoop=1;jettySize=auto;html=1;entryX=0;entryY=0.5;entryDx=0;entryDy=0;" edge="1" parent="1" source="vLVanVNAV3CpISKJ5yDy-22" target="vLVanVNAV3CpISKJ5yDy-24">
          <mxGeometry relative="1" as="geometry" />
        </mxCell>
        <mxCell id="vLVanVNAV3CpISKJ5yDy-22" value="&lt;b&gt;d1ff&lt;/b&gt;" style="ellipse;whiteSpace=wrap;html=1;fillColor=#dae8fc;strokeColor=#6c8ebf;" vertex="1" parent="1">
          <mxGeometry x="650" y="40" width="90" height="40" as="geometry" />
        </mxCell>
        <mxCell id="vLVanVNAV3CpISKJ5yDy-27" style="edgeStyle=orthogonalEdgeStyle;rounded=0;orthogonalLoop=1;jettySize=auto;html=1;entryX=0;entryY=0.5;entryDx=0;entryDy=0;" edge="1" parent="1" source="vLVanVNAV3CpISKJ5yDy-24" target="vLVanVNAV3CpISKJ5yDy-25">
          <mxGeometry relative="1" as="geometry" />
        </mxCell>
        <mxCell id="vLVanVNAV3CpISKJ5yDy-24" value="&lt;b&gt;5bbe&lt;/b&gt;" style="ellipse;whiteSpace=wrap;html=1;fillColor=#dae8fc;strokeColor=#6c8ebf;" vertex="1" parent="1">
          <mxGeometry x="770" y="40" width="90" height="40" as="geometry" />
        </mxCell>
        <mxCell id="vLVanVNAV3CpISKJ5yDy-32" style="edgeStyle=orthogonalEdgeStyle;rounded=0;orthogonalLoop=1;jettySize=auto;html=1;" edge="1" parent="1" source="vLVanVNAV3CpISKJ5yDy-25" target="vLVanVNAV3CpISKJ5yDy-31">
          <mxGeometry relative="1" as="geometry">
            <Array as="points">
              <mxPoint x="930" />
            </Array>
          </mxGeometry>
        </mxCell>
        <mxCell id="vLVanVNAV3CpISKJ5yDy-39" style="edgeStyle=orthogonalEdgeStyle;rounded=0;orthogonalLoop=1;jettySize=auto;html=1;entryX=0;entryY=0.5;entryDx=0;entryDy=0;" edge="1" parent="1" source="vLVanVNAV3CpISKJ5yDy-25" target="vLVanVNAV3CpISKJ5yDy-37">
          <mxGeometry relative="1" as="geometry">
            <Array as="points">
              <mxPoint x="990" y="60" />
              <mxPoint x="990" y="120" />
            </Array>
          </mxGeometry>
        </mxCell>
        <mxCell id="vLVanVNAV3CpISKJ5yDy-43" style="edgeStyle=orthogonalEdgeStyle;rounded=0;orthogonalLoop=1;jettySize=auto;html=1;" edge="1" parent="1" source="vLVanVNAV3CpISKJ5yDy-25" target="vLVanVNAV3CpISKJ5yDy-42">
          <mxGeometry relative="1" as="geometry" />
        </mxCell>
        <mxCell id="vLVanVNAV3CpISKJ5yDy-25" value="&lt;b&gt;c37b&lt;/b&gt;" style="ellipse;whiteSpace=wrap;html=1;fillColor=#dae8fc;strokeColor=#6c8ebf;" vertex="1" parent="1">
          <mxGeometry x="890" y="40" width="90" height="40" as="geometry" />
        </mxCell>
        <mxCell id="vLVanVNAV3CpISKJ5yDy-35" style="edgeStyle=orthogonalEdgeStyle;rounded=0;orthogonalLoop=1;jettySize=auto;html=1;entryX=0;entryY=0.5;entryDx=0;entryDy=0;" edge="1" parent="1" source="vLVanVNAV3CpISKJ5yDy-31" target="vLVanVNAV3CpISKJ5yDy-34">
          <mxGeometry relative="1" as="geometry" />
        </mxCell>
        <mxCell id="vLVanVNAV3CpISKJ5yDy-31" value="&lt;b&gt;c37b&lt;/b&gt;" style="ellipse;whiteSpace=wrap;html=1;fillColor=#ffe6cc;strokeColor=#d79b00;" vertex="1" parent="1">
          <mxGeometry x="1010" y="-20" width="90" height="40" as="geometry" />
        </mxCell>
        <mxCell id="vLVanVNAV3CpISKJ5yDy-44" style="edgeStyle=orthogonalEdgeStyle;rounded=0;orthogonalLoop=1;jettySize=auto;html=1;entryX=0.5;entryY=0;entryDx=0;entryDy=0;" edge="1" parent="1" source="vLVanVNAV3CpISKJ5yDy-33" target="vLVanVNAV3CpISKJ5yDy-42">
          <mxGeometry relative="1" as="geometry" />
        </mxCell>
        <mxCell id="vLVanVNAV3CpISKJ5yDy-33" value="&lt;b&gt;552a&lt;/b&gt;" style="ellipse;whiteSpace=wrap;html=1;fillColor=#ffe6cc;strokeColor=#d79b00;" vertex="1" parent="1">
          <mxGeometry x="1250" y="-20" width="90" height="40" as="geometry" />
        </mxCell>
        <mxCell id="vLVanVNAV3CpISKJ5yDy-36" style="edgeStyle=orthogonalEdgeStyle;rounded=0;orthogonalLoop=1;jettySize=auto;html=1;entryX=0;entryY=0.5;entryDx=0;entryDy=0;" edge="1" parent="1" source="vLVanVNAV3CpISKJ5yDy-34" target="vLVanVNAV3CpISKJ5yDy-33">
          <mxGeometry relative="1" as="geometry" />
        </mxCell>
        <mxCell id="vLVanVNAV3CpISKJ5yDy-34" value="&lt;b&gt;c3fc&lt;/b&gt;" style="ellipse;whiteSpace=wrap;html=1;fillColor=#ffe6cc;strokeColor=#d79b00;" vertex="1" parent="1">
          <mxGeometry x="1130" y="-20" width="90" height="40" as="geometry" />
        </mxCell>
        <mxCell id="vLVanVNAV3CpISKJ5yDy-40" style="edgeStyle=orthogonalEdgeStyle;rounded=0;orthogonalLoop=1;jettySize=auto;html=1;" edge="1" parent="1" source="vLVanVNAV3CpISKJ5yDy-37" target="vLVanVNAV3CpISKJ5yDy-38">
          <mxGeometry relative="1" as="geometry" />
        </mxCell>
        <mxCell id="vLVanVNAV3CpISKJ5yDy-37" value="&lt;b&gt;c37b&lt;/b&gt;" style="ellipse;whiteSpace=wrap;html=1;fillColor=#fff2cc;strokeColor=#d6b656;" vertex="1" parent="1">
          <mxGeometry x="1010" y="100" width="90" height="40" as="geometry" />
        </mxCell>
        <mxCell id="vLVanVNAV3CpISKJ5yDy-46" style="edgeStyle=orthogonalEdgeStyle;rounded=0;orthogonalLoop=1;jettySize=auto;html=1;entryX=0;entryY=0.5;entryDx=0;entryDy=0;" edge="1" parent="1" source="vLVanVNAV3CpISKJ5yDy-38" target="vLVanVNAV3CpISKJ5yDy-41">
          <mxGeometry relative="1" as="geometry" />
        </mxCell>
        <mxCell id="vLVanVNAV3CpISKJ5yDy-38" value="&lt;b&gt;f67c&lt;/b&gt;" style="ellipse;whiteSpace=wrap;html=1;fillColor=#fff2cc;strokeColor=#d6b656;" vertex="1" parent="1">
          <mxGeometry x="1130" y="100" width="90" height="40" as="geometry" />
        </mxCell>
        <mxCell id="vLVanVNAV3CpISKJ5yDy-41" value="&lt;b&gt;9d04&lt;/b&gt;" style="ellipse;whiteSpace=wrap;html=1;fillColor=#fff2cc;strokeColor=#d6b656;" vertex="1" parent="1">
          <mxGeometry x="1250" y="100" width="90" height="40" as="geometry" />
        </mxCell>
        <mxCell id="vLVanVNAV3CpISKJ5yDy-42" value="&lt;b&gt;26536&lt;/b&gt;" style="ellipse;whiteSpace=wrap;html=1;fillColor=#dae8fc;strokeColor=#6c8ebf;" vertex="1" parent="1">
          <mxGeometry x="1380" y="40" width="90" height="40" as="geometry" />
        </mxCell>
        <mxCell id="vLVanVNAV3CpISKJ5yDy-45" value="&lt;b&gt;suresh&lt;/b&gt;" style="text;html=1;align=center;verticalAlign=middle;resizable=0;points=[];autosize=1;strokeColor=none;fillColor=none;" vertex="1" parent="1">
          <mxGeometry x="1190" y="-62" width="60" height="30" as="geometry" />
        </mxCell>
      </root>
    </mxGraphModel>
  </diagram>
</mxfile>
